<?xml version="1.0" standalone="no"?>
<!DOCTYPE svg PUBLIC "-//W3C//DTD SVG 20010904//EN"
 "http://www.w3.org/TR/2001/REC-SVG-20010904/DTD/svg10.dtd">
<svg version="1.0" xmlns="http://www.w3.org/2000/svg"
 width="640.000000pt" height="640.000000pt" viewBox="0 0 640.000000 640.000000"
 preserveAspectRatio="xMidYMid meet">
<metadata>
Created by potrace 1.16, written by Peter Selinger 2001-2019
</metadata>
<g transform="translate(0.000000,640.000000) scale(0.100000,-0.100000)"
fill="#000000" stroke="none">
<path d="M3090 5768 c-36 -62 -79 -137 -96 -168 -37 -65 -193 -340 -326 -570
-342 -595 -484 -842 -511 -890 -17 -30 -56 -98 -87 -150 -31 -52 -59 -102 -63
-110 -4 -8 -15 -28 -26 -45 -20 -34 -302 -519 -368 -635 -57 -101 -160 -279
-263 -458 -47 -81 -117 -201 -155 -267 -38 -66 -91 -158 -118 -205 -28 -47
-119 -205 -203 -353 -85 -147 -164 -284 -177 -305 -12 -20 -28 -48 -35 -62 -7
-14 -30 -54 -51 -90 -21 -36 -35 -68 -30 -71 5 -3 1169 -5 2587 -5 2223 1
2577 3 2574 16 -2 7 -19 41 -39 74 -20 34 -46 79 -58 101 -12 22 -75 132 -140
245 -65 113 -151 261 -190 330 -39 69 -138 240 -220 380 -81 140 -191 329
-243 420 -52 91 -127 221 -167 290 -40 69 -122 213 -184 320 -61 107 -115 202
-121 210 -9 15 -169 290 -202 348 -10 17 -27 49 -39 70 -12 20 -45 78 -74 127
-29 50 -62 108 -74 129 -12 21 -84 145 -158 275 -75 130 -153 265 -173 301
-20 36 -99 173 -175 305 -76 132 -155 269 -175 305 -68 123 -145 250 -150 250
-3 0 -34 -51 -70 -112z m1335 -2543 c22 -40 228 -400 597 -1040 26 -44 89
-154 141 -245 l95 -165 -819 -3 -818 -2 -3 -73 -3 -72 -182 -3 -183 -2 0 245
0 245 700 0 c484 0 700 3 700 11 0 5 -36 71 -80 145 -44 75 -80 137 -80 139 0
2 -42 75 -93 162 -51 87 -96 165 -100 173 -4 8 -13 24 -20 35 -7 11 -25 44
-41 73 l-29 52 -291 -2 -291 -3 -5 -270 -5 -270 -175 -5 c-96 -3 -178 -3 -182
0 -9 7 -11 896 -3 910 4 7 213 9 577 8 l571 -3 22 -40z"/>
</g>
</svg>
